<svg width="70" height="70" viewBox="0 0 70 70" fill="none" xmlns="http://www.w3.org/2000/svg">
<circle cx="35" cy="35" r="35" fill="#13274E"/>
<path d="M36.854 45.4277L28.1485 48.3296C23.3986 49.9128 21.0237 50.7045 19.7701 49.4508C18.5164 48.1971 19.3081 45.8222 20.8914 41.0724L23.7932 32.3668C25.1089 28.4197 25.7668 26.4461 27.3234 26.0787C28.8799 25.7112 30.3509 27.1822 33.293 30.1242L39.0967 35.9279C42.0386 38.8699 43.5097 40.3409 43.1421 41.8975" stroke="white" stroke-width="3.3125" stroke-linecap="round"/>
<path d="M35.0154 45.5111C35.0154 45.5111 33.7133 41.5929 33.7133 38.9999C33.7133 36.4067 35.0154 32.4887 35.0154 32.4887M27.8532 47.4644C27.8532 47.4644 26.7533 42.7377 26.5509 39.651C26.2165 34.551 27.8532 26.6287 27.8532 26.6287" stroke="white" stroke-width="3.3125" stroke-linecap="round"/>
<path d="M38.9209 31.1864L39.1682 29.9498C39.4178 28.7013 40.3175 27.6823 41.5253 27.2796C42.7333 26.877 43.6328 25.858 43.8825 24.6095L44.1298 23.3729" stroke="white" stroke-width="3.3125" stroke-linecap="round"/>
<path d="M44.1768 36.7638L44.5424 36.9749C45.6711 37.6266 47.0901 37.4828 48.0652 36.6182C48.9482 35.8351 50.2057 35.6366 51.2871 36.1094L51.7878 36.3282" stroke="white" stroke-width="3.3125" stroke-linecap="round"/>
<path d="M30.8239 18.7732C30.2442 19.7214 30.3895 20.9433 31.1754 21.7291L31.3434 21.8972C32.0188 22.5725 32.2678 23.5646 31.9915 24.4787" stroke="white" stroke-width="3.3125" stroke-linecap="round"/>
<path d="M25.8987 20.7686C26.2585 20.4088 26.8418 20.4088 27.2016 20.7686C27.5614 21.1284 27.5614 21.7117 27.2016 22.0715C26.8418 22.4313 26.2585 22.4313 25.8987 22.0715C25.539 21.7117 25.539 21.1284 25.8987 20.7686Z" fill="white"/>
<path d="M34.8812 26.293C35.241 25.9332 35.8243 25.9332 36.1842 26.293C36.5438 26.6528 36.5438 27.2361 36.1842 27.5959C35.8243 27.9557 35.241 27.9557 34.8812 27.5959C34.5214 27.2361 34.5214 26.6528 34.8812 26.293Z" fill="white"/>
<path d="M43.4691 31.4457C43.8289 31.086 44.4122 31.086 44.7721 31.4457C45.1317 31.8056 45.1317 32.3889 44.7721 32.7487C44.4122 33.1084 43.8289 33.1084 43.4691 32.7487C43.1093 32.3889 43.1093 31.8056 43.4691 31.4457Z" fill="white"/>
<path d="M46.7346 40.3022C47.0944 39.9424 47.6777 39.9424 48.0376 40.3022C48.3972 40.6619 48.3972 41.2452 48.0376 41.605C47.6777 41.9649 47.0944 41.9649 46.7346 41.605C46.3749 41.2452 46.3749 40.6619 46.7346 40.3022Z" fill="white"/>
<path d="M47.2547 27.2501C46.1034 28.4014 46.9295 31.7393 46.9295 31.7393C46.9295 31.7393 50.2675 32.5655 51.4188 31.4142C52.6381 30.1949 51.9482 28.5945 50.0693 28.5996C50.0744 26.7208 48.474 26.0308 47.2547 27.2501Z" stroke="white" stroke-width="2.20833" stroke-linejoin="round"/>
<path d="M40.0877 19.8699L40.0403 20.0367C39.9883 20.2199 39.9622 20.3115 39.9745 20.4014C39.9867 20.4913 40.036 20.5694 40.1346 20.7256L40.2243 20.8677C40.5711 21.4172 40.7444 21.6919 40.6262 21.9167C40.5082 22.1414 40.1767 22.1673 39.514 22.219L39.3426 22.2324C39.1542 22.2471 39.0601 22.2544 38.9778 22.2977C38.8955 22.341 38.8344 22.4153 38.7121 22.5638L38.6006 22.6991C38.1702 23.2219 37.955 23.4833 37.7095 23.4497C37.4641 23.416 37.3509 23.1097 37.1245 22.4969L37.066 22.3384C37.0015 22.1643 36.9694 22.0772 36.9062 22.014C36.843 21.9509 36.7559 21.9187 36.5818 21.8544L36.4232 21.7958C35.8106 21.5694 35.5042 21.4562 35.4707 21.2107C35.437 20.9652 35.6984 20.75 36.2212 20.3196L36.3564 20.2082C36.505 20.0859 36.5794 20.0248 36.6225 19.9425C36.6658 19.8601 36.6731 19.766 36.6879 19.5777L36.7013 19.4062C36.753 18.7435 36.779 18.4121 37.0036 18.294C37.2283 18.1759 37.5031 18.3493 38.0525 18.696L38.1948 18.7857C38.3509 18.8842 38.4289 18.9335 38.5189 18.9458C38.6087 18.9581 38.7004 18.9321 38.8835 18.88L39.0505 18.8326C39.6951 18.6494 40.0175 18.5578 40.1899 18.7303C40.3624 18.9028 40.2708 19.2252 40.0877 19.8699Z" stroke="white" stroke-width="2.20833"/>
</svg>
