<svg width="70" height="70" viewBox="0 0 70 70" fill="none" xmlns="http://www.w3.org/2000/svg">
<circle cx="35" cy="35" r="35" fill="#13274E"/>
<path d="M18.083 46.1806C18.083 48.9903 20.2316 51.1389 23.0413 51.1389H46.1802C48.99 51.1389 51.1386 48.9903 51.1386 46.1806V32.9584H18.083V46.1806ZM46.1802 21.3889H42.8747V19.7362C42.8747 18.7445 42.2136 18.0834 41.2219 18.0834C40.2302 18.0834 39.5691 18.7445 39.5691 19.7362V21.3889H29.6525V19.7362C29.6525 18.7445 28.9913 18.0834 27.9997 18.0834C27.008 18.0834 26.3469 18.7445 26.3469 19.7362V21.3889H23.0413C20.2316 21.3889 18.083 23.5375 18.083 26.3473V29.6528H51.1386V26.3473C51.1386 23.5375 48.99 21.3889 46.1802 21.3889Z" fill="white"/>
</svg>
