<svg width="72" height="72" viewBox="0 0 72 72" fill="none" xmlns="http://www.w3.org/2000/svg">
<circle cx="36" cy="36" r="36" fill="#FF6464"/>
<path d="M51.098 26.6183L37.17 18.9593C36.7511 18.7269 36.2445 18.7307 35.8294 18.9593L29.9451 22.1966C29.4348 21.8386 28.814 21.6253 28.1437 21.6253C26.4146 21.6253 25.0092 23.0306 25.0092 24.7597C25.0092 26.4888 26.4146 27.8942 28.1437 27.8942C29.8728 27.8942 31.2781 26.4888 31.2781 24.7597C31.2781 24.7217 31.2781 24.6836 31.2743 24.6455L36.4997 21.7662L49.0338 28.6597V42.3326L36.4997 49.2338L23.9656 42.3402V32.9825L35.1096 36.5207V39.659C34.0774 40.1731 33.369 41.2357 33.369 42.4659C33.369 44.195 34.7744 45.6004 36.5035 45.6004C38.2326 45.6004 39.638 44.195 39.638 42.4659C39.638 41.2395 38.9296 40.1731 37.8975 39.659V36.3188L41.0091 34.5897C41.5118 34.9287 42.1136 35.1305 42.7648 35.1305C44.4939 35.1305 45.8993 33.7252 45.8993 31.9961C45.8993 30.267 44.4939 28.8616 42.7648 28.8616C41.0357 28.8616 39.6304 30.267 39.6304 31.9961C39.6304 32.0532 39.6304 32.1103 39.6342 32.1675L36.3474 33.9918L22.9944 29.749C22.5717 29.6157 22.1108 29.6881 21.749 29.9509C21.391 30.2137 21.1777 30.6326 21.1777 31.0744V43.1591C21.1777 43.6656 21.4558 44.1341 21.8976 44.3778L35.8256 52.0369C36.0351 52.1512 36.2674 52.2083 36.4959 52.2083C36.7244 52.2083 36.9567 52.1512 37.1662 52.0369L51.0942 44.3778C51.5398 44.1341 51.8141 43.6656 51.8141 43.1591V27.8409C51.8217 27.3305 51.5436 26.8621 51.098 26.6183ZM28.1437 25.8033C27.5686 25.8033 27.1001 25.3348 27.1001 24.7597C27.1001 24.1846 27.5686 23.7162 28.1437 23.7162C28.7187 23.7162 29.1872 24.1846 29.1872 24.7597C29.1872 25.3348 28.7187 25.8033 28.1437 25.8033ZM42.761 30.9525C43.3361 30.9525 43.8046 31.421 43.8046 31.9961C43.8046 32.5712 43.3361 33.0396 42.761 33.0396C42.1859 33.0396 41.7175 32.5712 41.7175 31.9961C41.7175 31.421 42.1859 30.9525 42.761 30.9525ZM36.4997 43.5095C35.9246 43.5095 35.4562 43.041 35.4562 42.4659C35.4562 41.8908 35.9246 41.4223 36.4997 41.4223C37.0748 41.4223 37.5433 41.8908 37.5433 42.4659C37.5433 43.041 37.0748 43.5095 36.4997 43.5095Z" fill="white"/>
</svg>
