<svg width="70" height="70" viewBox="0 0 70 70" fill="none" xmlns="http://www.w3.org/2000/svg">
<circle cx="35" cy="35" r="35" fill="#13274E"/>
<path d="M30.6957 39.2976L48.8005 21.1994M31.2104 40.1114L35.3156 48.3222C36.3078 50.3063 36.8037 51.2984 37.4287 51.5644C37.971 51.7953 38.5909 51.7534 39.0974 51.4519C39.681 51.1045 40.0393 50.0547 40.7562 47.9553L48.5129 25.2392C49.1376 23.41 49.4498 22.4953 49.2361 21.8903C49.0501 21.364 48.6361 20.9499 48.1099 20.764C47.5047 20.5502 46.5901 20.8625 44.7608 21.4871L22.0447 29.2439C19.9453 29.9607 18.8957 30.3192 18.5482 30.9027C18.2466 31.4091 18.2048 32.0291 18.4357 32.5713C18.7017 33.1962 19.6938 33.6924 21.678 34.6843L29.8886 38.7898C30.2156 38.9532 30.3791 39.0349 30.5206 39.1441C30.6464 39.241 30.7591 39.3537 30.8559 39.4793C30.9652 39.621 31.0469 39.7845 31.2104 40.1114Z" stroke="white" stroke-width="4.75" stroke-linecap="round" stroke-linejoin="round"/>
</svg>
