<svg width="72" height="72" viewBox="0 0 72 72" fill="none" xmlns="http://www.w3.org/2000/svg">
<circle cx="36" cy="36" r="36" fill="#FF6464"/>
<path fill-rule="evenodd" clip-rule="evenodd" d="M52.375 18.625C51.5825 29.4175 48.77 37.23 43.9375 42.0625C43.0805 42.9195 42.1421 43.703 41.1223 44.4129L41.1223 48.6163L35.4973 54.2413L32.0648 48.2346L22.7727 38.9415L16.75 35.5L22.375 29.875L26.6007 29.875C27.3042 28.8543 28.0832 27.9168 28.9375 27.0625C33.77 22.23 41.5825 19.4175 52.375 18.625ZM48.1563 22.8419L47.3538 22.9636C40.1579 24.096 34.9226 26.3807 31.5892 29.7142C29.5824 31.7209 28.056 34.3339 27.0223 37.5989L26.9538 37.8194L33.2369 44.1025L33.5477 44.0048C36.4842 43.0189 38.8963 41.6354 40.8161 39.8623L41.2859 39.4109C44.6193 36.0774 46.904 30.8421 48.0364 23.6462L48.1563 22.8419ZM23.4288 42.2999L19.4513 46.2774L16.7997 43.6257L20.7772 39.6483L23.4288 42.2999ZM27.4063 46.2774L20.7772 52.9065L18.1255 50.2549L24.7546 43.6257L27.4063 46.2774ZM28.7321 47.6032L31.3838 50.2549L27.4063 54.2323L24.7546 51.5807L28.7321 47.6032ZM38.3125 29.875C39.8658 29.875 41.125 31.1342 41.125 32.6875C41.125 34.2408 39.8658 35.5 38.3125 35.5C36.7592 35.5 35.5 34.2408 35.5 32.6875C35.5 31.1342 36.7592 29.875 38.3125 29.875Z" fill="white"/>
</svg>
