<svg width="632" height="562" viewBox="0 0 632 562" fill="none" xmlns="http://www.w3.org/2000/svg">
<path d="M572.596 262.71V243.95C572.596 240.373 571.257 236.942 568.872 234.413C566.487 231.883 563.252 230.462 559.879 230.462H514.992C513.322 230.462 511.668 230.113 510.125 229.435C508.582 228.757 507.18 227.764 505.999 226.511C504.818 225.259 503.881 223.772 503.242 222.136C502.603 220.499 502.274 218.745 502.274 216.974V198.214C502.274 194.637 503.614 191.206 505.999 188.677C508.384 186.147 511.619 184.726 514.992 184.726H516.409C518.079 184.726 519.733 184.377 521.276 183.699C522.818 183.021 524.22 182.028 525.401 180.775C526.582 179.523 527.519 178.036 528.158 176.399C528.797 174.763 529.126 173.009 529.126 171.238V152.478C529.126 148.901 527.786 145.47 525.401 142.941C523.016 140.411 519.782 138.99 516.409 138.99H125.631C122.259 138.99 119.024 140.411 116.639 142.941C114.254 145.47 112.914 148.901 112.914 152.478V171.238C112.914 174.815 114.254 178.246 116.639 180.775C119.024 183.305 122.259 184.726 125.631 184.726C127.301 184.726 128.955 185.075 130.498 185.753C132.041 186.431 133.443 187.424 134.624 188.677C135.805 189.929 136.742 191.416 137.381 193.052C138.02 194.689 138.349 196.443 138.349 198.214V216.974C138.349 220.551 137.009 223.982 134.624 226.511C132.239 229.041 129.004 230.462 125.631 230.462H76.4527C74.7826 230.462 73.1289 230.811 71.586 231.489C70.0431 232.167 68.6411 233.16 67.4602 234.413C66.2793 235.665 65.3426 237.152 64.7035 238.788C64.0644 240.425 63.7354 242.179 63.7354 243.95V262.71C63.7354 266.287 65.0753 269.718 67.4602 272.247C69.8452 274.777 73.0799 276.198 76.4527 276.198H95.7497C99.1225 276.198 102.357 277.619 104.742 280.149C107.127 282.678 108.467 286.109 108.467 289.686V308.446C108.467 312.023 107.127 315.454 104.742 317.983C102.357 320.513 99.1225 321.934 95.7497 321.934H95.703C92.3302 321.934 89.0955 323.355 86.7106 325.885C84.3257 328.414 82.9858 331.845 82.9858 335.422V354.182C82.9858 357.759 84.3257 361.19 86.7106 363.719C89.0956 366.249 92.3302 367.67 95.7031 367.67H98.4949C100.165 367.67 101.819 368.019 103.362 368.697C104.905 369.375 106.306 370.368 107.487 371.621C108.668 372.873 109.605 374.36 110.244 375.997C110.883 377.633 111.212 379.387 111.212 381.158V399.918C111.212 403.495 109.872 406.926 107.487 409.456C105.102 411.985 101.868 413.406 98.4949 413.406H72.1215C68.7487 413.406 65.514 414.827 63.1291 417.357C60.7441 419.886 59.4043 423.317 59.4043 426.894V445.654C59.4043 447.425 59.7332 449.179 60.3723 450.816C61.0114 452.452 61.9482 453.939 63.1291 455.192C64.31 456.444 65.7119 457.438 67.2549 458.115C68.7978 458.793 70.4515 459.142 72.1215 459.142H523.236C526.609 459.142 529.844 457.721 532.229 455.192C534.614 452.662 535.954 449.231 535.954 445.654V426.894C535.954 423.317 534.614 419.886 532.229 417.357C529.844 414.827 526.609 413.406 523.236 413.406H512.21C508.837 413.406 505.602 411.985 503.217 409.456C500.832 406.926 499.493 403.495 499.493 399.918V381.158C499.493 377.581 500.832 374.15 503.217 371.621C505.602 369.091 508.837 367.67 512.21 367.67H538.209C541.582 367.67 544.817 366.249 547.202 363.719C549.587 361.19 550.927 357.759 550.927 354.182V335.422C550.927 331.845 549.587 328.414 547.202 325.885C544.817 323.355 541.582 321.934 538.209 321.934H530.322C526.949 321.934 523.715 320.513 521.33 317.983C518.945 315.454 517.605 312.023 517.605 308.446V289.686C517.605 286.109 518.945 282.678 521.33 280.149C523.715 277.619 526.949 276.198 530.322 276.198H559.879C561.549 276.198 563.203 275.849 564.746 275.171C566.289 274.493 567.691 273.5 568.872 272.247C570.052 270.995 570.989 269.508 571.628 267.872C572.268 266.235 572.596 264.481 572.596 262.71Z" fill="#DBE8EC"/>
<path d="M320.862 377.604H277.254V430.569H320.862V377.604Z" fill="#FF6464"/>
<path d="M424.505 171.746H173.611C166.63 171.746 160.971 177.748 160.971 185.152V385.545C160.971 392.949 166.63 398.951 173.611 398.951H424.505C431.486 398.951 437.145 392.949 437.145 385.545V185.152C437.145 177.748 431.486 171.746 424.505 171.746Z" fill="#13274E"/>
<path d="M408.089 193.093H190.025C185.193 193.093 181.276 197.247 181.276 202.371V368.325C181.276 373.45 185.193 377.604 190.025 377.604H408.089C412.92 377.604 416.837 373.45 416.837 368.325V202.371C416.837 197.247 412.92 193.093 408.089 193.093Z" fill="#375A97"/>
<path d="M349.545 418.256H248.571C243.448 418.256 239.295 422.661 239.295 428.094V439.603C239.295 445.036 243.448 449.441 248.571 449.441H349.545C354.668 449.441 358.821 445.036 358.821 439.603V428.094C358.821 422.661 354.668 418.256 349.545 418.256Z" fill="#13274E"/>
<path d="M408.089 193.093H190.025C188.876 193.093 187.738 193.333 186.677 193.799C185.615 194.265 184.651 194.949 183.839 195.81C183.026 196.672 182.382 197.695 181.942 198.821C181.503 199.946 181.276 201.153 181.276 202.371V222.731H416.837V202.371C416.837 201.153 416.61 199.946 416.171 198.821C415.731 197.695 415.087 196.672 414.274 195.81C413.462 194.949 412.498 194.265 411.436 193.799C410.375 193.333 409.237 193.093 408.089 193.093Z" fill="#DBE8EC"/>
<path d="M301.274 269.911H207.773C206.162 269.911 204.856 271.296 204.856 273.004V327.331C204.856 329.039 206.162 330.424 207.773 330.424H301.274C302.885 330.424 304.191 329.039 304.191 327.331V273.004C304.191 271.296 302.885 269.911 301.274 269.911Z" fill="#DBE8EC"/>
<path d="M221.621 284.822H287.427" stroke="#13274E" stroke-width="3.09375" stroke-miterlimit="10"/>
<path d="M221.621 300.167H287.427" stroke="#13274E" stroke-width="3.09375" stroke-miterlimit="10"/>
<path d="M221.621 315.512H287.427" stroke="#13274E" stroke-width="3.09375" stroke-miterlimit="10"/>
<path d="M299.058 214.223C302.344 214.223 305.008 211.397 305.008 207.912C305.008 204.426 302.344 201.6 299.058 201.6C295.772 201.6 293.107 204.426 293.107 207.912C293.107 211.397 295.772 214.223 299.058 214.223Z" fill="#13274E"/>
<path d="M495.576 295.74C496.258 298.455 496.426 301.286 496.068 304.07C495.71 306.854 494.835 309.534 493.493 311.956C490.754 316.852 486.312 320.411 481.123 321.865L480.317 322.09C476.073 308.561 472.52 294.8 469.675 280.866L470.893 280.526C473.456 279.802 476.128 279.622 478.757 279.995C481.385 280.368 483.918 281.287 486.211 282.701C488.504 284.114 490.512 285.993 492.118 288.231C493.725 290.468 494.9 293.02 495.576 295.74Z" fill="#FF6464"/>
<path d="M480.731 280.476L485.358 299.172C485.721 300.639 485.519 302.2 484.798 303.509C484.076 304.819 482.894 305.771 481.51 306.157C480.808 306.353 480.151 306.697 479.577 307.168C479.003 307.639 478.524 308.228 478.168 308.899C477.813 309.57 477.588 310.31 477.507 311.075C477.427 311.84 477.491 312.615 477.698 313.352C478.55 316.324 479.42 319.25 480.318 322.09L481.124 321.865C486.313 320.411 490.756 316.853 493.494 311.957C495.084 309.079 496.014 305.846 496.209 302.517C496.404 299.189 495.859 295.858 494.617 292.794C493.375 289.73 491.471 287.019 489.059 284.879C486.647 282.739 483.794 281.231 480.731 280.476Z" fill="#FF6464"/>
<path d="M378.294 361.414C377.61 359.479 376.276 357.88 374.548 356.925C372.82 355.969 370.82 355.725 368.932 356.238L364.215 357.562L364.115 357.588L355.228 360.064C353.236 360.623 351.532 361.994 350.488 363.878C349.443 365.762 349.142 368.007 349.649 370.125L351.521 377.711H383.898L378.294 361.414Z" fill="#FF6464"/>
<path d="M391.037 355.383C392.699 355.608 394.35 355.842 396.001 356.071C395.638 360.188 394.623 362.778 392.98 363.236C388.098 364.595 379.542 347.033 373.839 323.985C368.151 300.999 367.473 281.244 372.355 279.885C373.998 279.428 376.081 281.156 378.284 284.475C376.953 285.534 375.621 286.593 374.283 287.676L391.037 355.383Z" fill="#13274E"/>
<path d="M504.1 380.731C502.221 380.169 500.001 379.405 498.143 378.925C496.072 378.191 494.026 377.604 491.921 376.968C490.487 376.506 489.014 376.069 487.527 375.64C457.476 366.905 426.895 360.367 396 356.07C394.35 355.841 392.699 355.608 391.037 355.382C385.407 356.949 368.653 289.243 374.283 287.676C375.621 286.593 376.952 285.534 378.284 284.475C403.206 264.639 426.818 243.015 448.953 219.756C450.05 218.608 451.131 217.459 452.228 216.311C453.704 214.656 455.216 213.083 456.684 211.381C458.119 209.896 459.598 208.257 461.037 206.705C455.431 219.264 458.073 256.024 468.378 297.668C473.407 317.991 488.753 369.296 504.1 380.731Z" fill="#F9AE2B"/>
<path d="M392.98 363.235L348.363 375.655L342.56 371.255C338.211 364.848 333.021 351.826 329.205 336.409C325.406 321.053 323.852 307.089 324.719 299.16L327.738 292.304L372.355 279.885C367.473 281.244 368.15 300.999 373.838 323.985C379.541 347.032 388.098 364.594 392.98 363.235Z" fill="#FF6464"/>
<path d="M394.257 377.71L389.624 364.17L392.98 363.236C391.663 363.602 390.077 362.581 388.353 360.456L387.779 358.78C387.199 357.069 386.104 355.608 384.663 354.623C380.912 347.496 376.951 336.562 373.839 323.985C368.151 300.999 367.473 281.244 372.355 279.885L369.143 280.779C367.156 281.332 365.292 282.295 363.656 283.613C362.02 284.93 360.645 286.577 359.609 288.458C358.573 290.34 357.896 292.419 357.618 294.578C357.34 296.736 357.465 298.932 357.987 301.039L363.825 324.632C365.5 331.408 364.569 338.612 361.238 344.661C357.906 350.71 352.446 355.108 346.058 356.887L336.629 359.512C337.741 362.266 338.987 364.958 340.363 367.575C336.546 360.5 332.396 349.3 329.206 336.409C325.406 321.053 323.852 307.09 324.72 299.16L313.501 324.835C311.8 325.309 312.011 332.333 314.062 340.624C316.11 348.899 319.199 355.21 320.9 354.737L342.56 371.255L348.363 375.655L380.148 366.808L383.897 377.71H394.257ZM340.442 367.719C340.641 368.09 340.84 368.449 341.038 368.795C340.84 368.45 340.641 368.087 340.442 367.719Z" fill="#FF6464"/>
<path d="M504.238 380.693L504.192 380.777L504.102 380.731C502.223 380.169 500.003 379.405 498.145 378.925C496.11 378.335 494.141 377.727 492.126 377.202C492.033 377.162 492.013 377.079 491.923 376.967C484.457 367.028 450.067 230.153 452.231 216.311C452.21 216.228 452.273 216.145 452.256 216.079C453.752 214.506 455.186 212.951 456.686 211.381C458.121 209.896 459.6 208.257 461.039 206.705C456.171 217.522 491.883 371.427 504.238 380.693Z" fill="#13274E"/>
<path d="M341.039 322.09C345.836 322.09 349.726 317.965 349.726 312.876C349.726 307.788 345.836 303.663 341.039 303.663C336.241 303.663 332.352 307.788 332.352 312.876C332.352 317.965 336.241 322.09 341.039 322.09Z" fill="#13274E"/>
<path d="M349.396 339.42C351.968 339.42 354.054 337.208 354.054 334.48C354.054 331.752 351.968 329.541 349.396 329.541C346.824 329.541 344.739 331.752 344.739 334.48C344.739 337.208 346.824 339.42 349.396 339.42Z" fill="#13274E"/>
<path d="M133.106 154.92C171.82 154.92 203.204 135.654 203.204 111.889C203.204 88.1232 171.82 68.8574 133.106 68.8574C94.3911 68.8574 63.0068 88.1232 63.0068 111.889C63.0068 135.654 94.3911 154.92 133.106 154.92Z" fill="#F9AE2B"/>
<path d="M188.944 135.87L171.578 130.954L166.943 149.372L184.308 154.288L188.944 135.87Z" fill="#F9AE2B"/>
<path d="M95.0684 98.9626H171.142" stroke="#13274E" stroke-width="3.09375" stroke-miterlimit="10"/>
<path d="M95.0684 111.889H171.142" stroke="#13274E" stroke-width="3.09375" stroke-miterlimit="10"/>
<path d="M95.0684 124.815H171.142" stroke="#13274E" stroke-width="3.09375" stroke-miterlimit="10"/>
<path d="M416.838 156.461C439.228 156.461 457.378 145.319 457.378 131.574C457.378 117.83 439.228 106.688 416.838 106.688C394.448 106.688 376.297 117.83 376.297 131.574C376.297 145.319 394.448 156.461 416.838 156.461Z" fill="#F9AE2B"/>
<path d="M387.225 156.096L397.269 153.252L394.588 142.6L384.545 145.444L387.225 156.096Z" fill="#F9AE2B"/>
<path d="M402.138 136.772C404.844 136.772 407.038 134.445 407.038 131.574C407.038 128.704 404.844 126.377 402.138 126.377C399.431 126.377 397.237 128.704 397.237 131.574C397.237 134.445 399.431 136.772 402.138 136.772Z" fill="#13274E"/>
<path d="M416.838 136.772C419.544 136.772 421.738 134.445 421.738 131.574C421.738 128.704 419.544 126.377 416.838 126.377C414.131 126.377 411.938 128.704 411.938 131.574C411.938 134.445 414.131 136.772 416.838 136.772Z" fill="#13274E"/>
<path d="M431.54 136.772C434.247 136.772 436.44 134.445 436.44 131.574C436.44 128.704 434.247 126.377 431.54 126.377C428.834 126.377 426.64 128.704 426.64 131.574C426.64 134.445 428.834 136.772 431.54 136.772Z" fill="#13274E"/>
<path d="M453.971 412.434C457.11 412.434 457.11 415.528 460.25 415.528C463.388 415.528 463.388 412.434 466.526 412.434C469.667 412.434 469.667 415.528 472.808 415.528C475.95 415.528 475.95 412.434 479.093 412.434C482.236 412.434 482.236 415.528 485.379 415.528" stroke="#B9D4DB" stroke-width="3.09375" stroke-miterlimit="10" stroke-linecap="round"/>
<path d="M453.971 422.036C457.11 422.036 457.11 425.129 460.25 425.129C463.388 425.129 463.388 422.036 466.526 422.036C469.667 422.036 469.667 425.129 472.808 425.129C475.95 425.129 475.95 422.036 479.093 422.036C482.236 422.036 482.236 425.129 485.379 425.129" stroke="#B9D4DB" stroke-width="3.09375" stroke-miterlimit="10" stroke-linecap="round"/>
<path d="M453.971 431.637C457.11 431.637 457.11 434.731 460.25 434.731C463.388 434.731 463.388 431.637 466.526 431.637C469.667 431.637 469.667 434.731 472.808 434.731C475.95 434.731 475.95 431.637 479.093 431.637C482.236 431.637 482.236 434.731 485.379 434.731" stroke="#B9D4DB" stroke-width="3.09375" stroke-miterlimit="10" stroke-linecap="round"/>
<path d="M116.985 315.912C120.125 315.912 120.125 319.006 123.265 319.006C126.403 319.006 126.403 315.912 129.541 315.912C132.681 315.912 132.681 319.006 135.822 319.006C138.965 319.006 138.965 315.912 142.108 315.912C145.251 315.912 145.251 319.006 148.394 319.006" stroke="#B9D4DB" stroke-width="3.09375" stroke-miterlimit="10" stroke-linecap="round"/>
<path d="M116.985 325.514C120.125 325.514 120.125 328.607 123.265 328.607C126.403 328.607 126.403 325.514 129.541 325.514C132.681 325.514 132.681 328.607 135.822 328.607C138.965 328.607 138.965 325.514 142.108 325.514C145.251 325.514 145.251 328.607 148.394 328.607" stroke="#B9D4DB" stroke-width="3.09375" stroke-miterlimit="10" stroke-linecap="round"/>
<path d="M116.985 335.115C120.125 335.115 120.125 338.208 123.265 338.208C126.403 338.208 126.403 335.115 129.541 335.115C132.681 335.115 132.681 338.208 135.822 338.208C138.965 338.208 138.965 335.115 142.108 335.115C145.251 335.115 145.251 338.208 148.394 338.208" stroke="#B9D4DB" stroke-width="3.09375" stroke-miterlimit="10" stroke-linecap="round"/>
<path d="M250.691 135.711C253.831 135.711 253.831 138.805 256.971 138.805C260.109 138.805 260.109 135.711 263.247 135.711C266.387 135.711 266.387 138.805 269.528 138.805C272.671 138.805 272.671 135.711 275.814 135.711C278.957 135.711 278.957 138.805 282.1 138.805" stroke="#B9D4DB" stroke-width="3.09375" stroke-miterlimit="10" stroke-linecap="round"/>
<path d="M250.691 145.312C253.831 145.312 253.831 148.406 256.971 148.406C260.109 148.406 260.109 145.312 263.247 145.312C266.387 145.312 266.387 148.406 269.528 148.406C272.671 148.406 272.671 145.312 275.814 145.312C278.957 145.312 278.957 148.406 282.1 148.406" stroke="#B9D4DB" stroke-width="3.09375" stroke-miterlimit="10" stroke-linecap="round"/>
<path d="M250.691 154.914C253.831 154.914 253.831 158.008 256.971 158.008C260.109 158.008 260.109 154.914 263.247 154.914C266.387 154.914 266.387 158.008 269.528 158.008C272.671 158.008 272.671 154.914 275.814 154.914C278.957 154.914 278.957 158.008 282.1 158.008" stroke="#B9D4DB" stroke-width="3.09375" stroke-miterlimit="10" stroke-linecap="round"/>
<path d="M109.412 262.574C118.233 262.574 125.385 254.989 125.385 245.633C125.385 236.276 118.233 228.691 109.412 228.691C100.59 228.691 93.4385 236.276 93.4385 245.633C93.4385 254.989 100.59 262.574 109.412 262.574Z" fill="#B9D4DB"/>
<path d="M90.4138 226.392C95.0089 226.392 98.7339 222.441 98.7339 217.567C98.7339 212.694 95.0089 208.743 90.4138 208.743C85.8188 208.743 82.0938 212.694 82.0938 217.567C82.0938 222.441 85.8188 226.392 90.4138 226.392Z" fill="#B9D4DB"/>
<path d="M137.693 194.113C141.67 194.113 144.894 190.693 144.894 186.475C144.894 182.257 141.67 178.838 137.693 178.838C133.716 178.838 130.492 182.257 130.492 186.475C130.492 190.693 133.716 194.113 137.693 194.113Z" fill="#B9D4DB"/>
<path d="M112.528 202.274C115.178 202.274 117.327 199.995 117.327 197.183C117.327 194.372 115.178 192.093 112.528 192.093C109.877 192.093 107.729 194.372 107.729 197.183C107.729 199.995 109.877 202.274 112.528 202.274Z" fill="#B9D4DB"/>
<path d="M132.689 228.085C139.043 228.085 144.193 222.622 144.193 215.883C144.193 209.143 139.043 203.68 132.689 203.68C126.335 203.68 121.184 209.143 121.184 215.883C121.184 222.622 126.335 228.085 132.689 228.085Z" fill="#B9D4DB"/>
<path d="M518.906 233.92C527.727 233.92 534.879 226.335 534.879 216.979C534.879 207.622 527.727 200.037 518.906 200.037C510.084 200.037 502.933 207.622 502.933 216.979C502.933 226.335 510.084 233.92 518.906 233.92Z" fill="#B9D4DB"/>
<path d="M485.097 234.152C489.692 234.152 493.418 230.201 493.418 225.328C493.418 220.454 489.692 216.503 485.097 216.503C480.502 216.503 476.777 220.454 476.777 225.328C476.777 230.201 480.502 234.152 485.097 234.152Z" fill="#B9D4DB"/>
<path d="M485.097 201.809C491.451 201.809 496.602 196.345 496.602 189.606C496.602 182.867 491.451 177.404 485.097 177.404C478.743 177.404 473.592 182.867 473.592 189.606C473.592 196.345 478.743 201.809 485.097 201.809Z" fill="#B9D4DB"/>
<path d="M171.599 440.763C180.421 440.763 187.572 433.178 187.572 423.822C187.572 414.465 180.421 406.88 171.599 406.88C162.777 406.88 155.626 414.465 155.626 423.822C155.626 433.178 162.777 440.763 171.599 440.763Z" fill="#B9D4DB"/>
<path d="M140.707 449.439C145.302 449.439 149.027 445.489 149.027 440.615C149.027 435.741 145.302 431.791 140.707 431.791C136.112 431.791 132.387 435.741 132.387 440.615C132.387 445.489 136.112 449.439 140.707 449.439Z" fill="#B9D4DB"/>
<path d="M132.542 418.161C138.896 418.161 144.047 412.698 144.047 405.959C144.047 399.22 138.896 393.757 132.542 393.757C126.188 393.757 121.037 399.22 121.037 405.959C121.037 412.698 126.188 418.161 132.542 418.161Z" fill="#B9D4DB"/>
<g filter="url(#filter0_d_6157_12477)">
<rect x="187" y="494.369" width="321.666" height="62.3065" rx="4" transform="rotate(-15.7603 187 494.369)" fill="#556584" shape-rendering="crispEdges"/>
<path d="M211.848 525.961L209.131 516.336L211.056 515.793L210.513 513.868L212.438 513.325L211.895 511.4L217.669 509.771L218.212 511.695L220.137 511.152L220.68 513.077L222.605 512.534L225.321 522.158L221.472 523.244L220.385 519.395L214.611 521.024L215.697 524.874L211.848 525.961ZM214.067 519.1L219.842 517.47L218.755 513.62L216.831 514.164L216.287 512.239L214.363 512.782L214.906 514.707L212.981 515.25L214.067 519.1ZM229.325 521.028L228.782 519.103L226.857 519.646L225.227 513.872L227.152 513.329L226.609 511.404L234.308 509.231L233.221 505.381L237.071 504.295L240.874 517.769L229.325 521.028ZM230.706 518.56L236.481 516.93L234.851 511.156L229.077 512.786L230.706 518.56ZM248.727 515.552L248.184 513.627L246.259 514.171L245.716 512.246L243.791 512.789L242.161 507.015L246.011 505.928L247.64 511.703L251.49 510.616L249.86 504.842L253.71 503.755L255.34 509.53L253.415 510.073L253.958 511.998L252.033 512.541L252.577 514.466L248.727 515.552ZM260.43 512.249L259.887 510.325L257.962 510.868L256.332 505.093L258.257 504.55L257.714 502.625L267.338 499.909L267.881 501.834L269.806 501.291L270.892 505.14L261.268 507.857L261.811 509.781L269.511 507.609L270.054 509.533L260.43 512.249ZM260.725 505.932L266.499 504.302L265.956 502.377L260.182 504.007L260.725 505.932ZM277.659 499.074L279.584 498.531L280.127 500.456L278.202 500.999L279.832 506.774L275.982 507.86L273.266 498.236L277.116 497.15L277.659 499.074ZM284.815 494.977L285.358 496.902L279.584 498.531L279.041 496.606L284.815 494.977ZM289.61 504.014L289.067 502.089L298.691 499.373L298.148 497.448L290.448 499.621L289.905 497.696L287.98 498.24L287.437 496.315L289.362 495.772L288.819 493.847L298.443 491.131L298.986 493.056L291.287 495.228L291.83 497.153L299.529 494.98L300.072 496.905L301.997 496.362L302.54 498.287L300.616 498.83L301.159 500.755L289.61 504.014ZM307.678 486.446L307.134 484.522L310.984 483.435L311.527 485.36L307.678 486.446ZM307.087 499.082L306.544 497.157L310.394 496.07L308.764 490.296L306.839 490.839L306.296 488.914L312.07 487.285L314.243 494.984L318.093 493.897L318.636 495.822L307.087 499.082ZM326.489 493.606L324.316 485.907L320.467 486.993L319.924 485.068L323.773 483.982L322.687 480.132L326.536 479.046L327.623 482.895L331.472 481.809L332.016 483.734L328.166 484.82L330.339 492.519L326.489 493.606ZM338.782 477.668L338.239 475.743L342.089 474.657L342.632 476.581L338.782 477.668ZM338.192 490.303L337.649 488.378L341.499 487.292L339.869 481.517L337.944 482.061L337.401 480.136L343.175 478.506L345.348 486.205L349.198 485.119L349.741 487.044L338.192 490.303ZM353.745 485.914L353.201 483.989L351.277 484.532L349.647 478.758L351.572 478.215L351.029 476.29L360.653 473.574L361.196 475.498L363.121 474.955L364.207 478.805L354.583 481.521L355.126 483.446L362.826 481.273L363.369 483.198L353.745 485.914ZM354.04 479.596L359.814 477.966L359.271 476.042L353.497 477.671L354.04 479.596ZM367.372 482.068L366.829 480.143L376.453 477.427L375.91 475.502L368.211 477.675L367.668 475.75L365.743 476.293L365.199 474.369L367.124 473.825L366.581 471.901L376.205 469.184L376.748 471.109L369.049 473.282L369.592 475.207L377.292 473.034L377.835 474.959L379.76 474.416L380.303 476.34L378.378 476.884L378.921 478.808L367.372 482.068ZM398.477 473.289L394.675 459.816L398.524 458.729L399.611 462.579L407.31 460.406L407.853 462.331L409.778 461.787L411.951 469.487L408.101 470.573L405.929 462.874L400.154 464.504L402.327 472.203L398.477 473.289ZM415.955 468.357L415.411 466.432L413.487 466.975L411.857 461.201L413.782 460.658L413.239 458.733L422.863 456.017L423.406 457.941L425.331 457.398L426.417 461.248L416.793 463.964L417.336 465.889L425.036 463.716L425.579 465.641L415.955 468.357ZM416.25 462.039L422.024 460.409L421.481 458.485L415.707 460.114L416.25 462.039ZM433.184 455.182L435.109 454.639L435.652 456.563L433.727 457.107L435.357 462.881L431.507 463.967L428.791 454.343L432.641 453.257L433.184 455.182ZM440.34 451.084L440.883 453.009L435.109 454.639L434.565 452.714L440.34 451.084ZM447.06 459.578L446.516 457.653L444.592 458.197L442.962 452.422L444.887 451.879L444.344 449.954L453.968 447.238L454.511 449.163L456.436 448.62L457.522 452.469L447.898 455.185L448.441 457.11L456.14 454.937L456.684 456.862L447.06 459.578ZM447.355 453.261L453.129 451.631L452.586 449.706L446.812 451.336L447.355 453.261ZM464.537 454.646L463.45 450.796L467.3 449.71L468.387 453.559L464.537 454.646ZM480.089 450.256L479.003 446.407L482.853 445.32L483.939 449.17L480.089 450.256Z" fill="white"/>
</g>
<defs>
<filter id="filter0_d_6157_12477" x="183" y="407" width="334.497" height="155.333" filterUnits="userSpaceOnUse" color-interpolation-filters="sRGB">
<feFlood flood-opacity="0" result="BackgroundImageFix"/>
<feColorMatrix in="SourceAlpha" type="matrix" values="0 0 0 0 0 0 0 0 0 0 0 0 0 0 0 0 0 0 127 0" result="hardAlpha"/>
<feOffset dy="4"/>
<feGaussianBlur stdDeviation="2"/>
<feComposite in2="hardAlpha" operator="out"/>
<feColorMatrix type="matrix" values="0 0 0 0 0 0 0 0 0 0 0 0 0 0 0 0 0 0 0.25 0"/>
<feBlend mode="normal" in2="BackgroundImageFix" result="effect1_dropShadow_6157_12477"/>
<feBlend mode="normal" in="SourceGraphic" in2="effect1_dropShadow_6157_12477" result="shape"/>
</filter>
</defs>
</svg>
