<svg width="23" height="23" viewBox="0 0 23 23" fill="none" xmlns="http://www.w3.org/2000/svg">
<g clip-path="url(#clip0_6157_11585)">
<path d="M13.4163 7.66634H4.4719C4.30245 7.66634 4.13995 7.59903 4.02013 7.47921C3.90032 7.3594 3.83301 7.1969 3.83301 7.02745V4.4719C3.83301 4.30245 3.90032 4.13995 4.02013 4.02013C4.13995 3.90032 4.30245 3.83301 4.4719 3.83301H13.4163C13.5858 3.83301 13.7483 3.90032 13.8681 4.02013C13.9879 4.13995 14.0552 4.30245 14.0552 4.4719V7.02745C14.0552 7.1969 13.9879 7.3594 13.8681 7.47921C13.7483 7.59903 13.5858 7.66634 13.4163 7.66634ZM5.11079 6.38856H12.7775V5.07245H5.11079V6.38856Z" fill="#13274E"/>
<path d="M13.4163 8.99512H4.4719C4.30245 8.99512 4.13995 9.06243 4.02013 9.18224C3.90032 9.30206 3.83301 9.46456 3.83301 9.63401V12.1385C3.83301 12.3079 3.90032 12.4704 4.02013 12.5902C4.13995 12.71 4.30245 12.7773 4.4719 12.7773H11.7297L14.0552 10.4135V9.63401C14.0552 9.46456 13.9879 9.30206 13.8681 9.18224C13.7483 9.06243 13.5858 8.99512 13.4163 8.99512ZM12.7775 11.4996H5.11079V10.2218H12.7775V11.4996Z" fill="#13274E"/>
<path d="M7.06665 20.1319V20.0936L7.2711 19.2055H2.5561V2.5561H15.3339V9.10471L16.6117 7.89721V1.91721C16.6117 1.74777 16.5443 1.58526 16.4245 1.46545C16.3047 1.34563 16.1422 1.27832 15.9728 1.27832H1.91721C1.74777 1.27832 1.58526 1.34563 1.46545 1.46545C1.34563 1.58526 1.27832 1.74777 1.27832 1.91721V19.8061C1.27832 19.9755 1.34563 20.138 1.46545 20.2579C1.58526 20.3777 1.74777 20.445 1.91721 20.445H7.02832C7.03358 20.3399 7.0464 20.2352 7.06665 20.1319Z" fill="#13274E"/>
<path d="M14.055 12.2471L13.5566 12.7518C13.6803 12.7263 13.7936 12.6648 13.8823 12.5749C13.971 12.4851 14.0311 12.371 14.055 12.2471Z" fill="#13274E"/>
<path d="M3.83301 17.2118C3.83301 17.3812 3.90032 17.5437 4.02013 17.6635C4.13995 17.7834 4.30245 17.8507 4.4719 17.8507H7.56412L7.75579 17.0201L7.83884 16.6687V16.6368H5.11079V15.3334H9.16134L10.4391 14.0557H4.4719C4.30245 14.0557 4.13995 14.123 4.02013 14.2428C3.90032 14.3626 3.83301 14.5251 3.83301 14.6946V17.2118Z" fill="#13274E"/>
<path d="M21.3967 10.6497L19.2437 8.49661C19.1481 8.40079 19.0346 8.32477 18.9096 8.2729C18.7846 8.22104 18.6506 8.19434 18.5153 8.19434C18.38 8.19434 18.246 8.22104 18.1211 8.2729C17.9961 8.32477 17.8826 8.40079 17.787 8.49661L9.02783 17.3069L8.30589 20.3799C8.27886 20.5125 8.27825 20.6491 8.3041 20.7819C8.32995 20.9147 8.38175 21.0411 8.45653 21.1539C8.5313 21.2667 8.62759 21.3636 8.73988 21.4391C8.85217 21.5145 8.97824 21.5671 9.11089 21.5938C9.17674 21.6004 9.24309 21.6004 9.30895 21.5938C9.38722 21.6066 9.46705 21.6066 9.54533 21.5938L12.6439 20.9102L21.3967 12.1383C21.4923 12.0433 21.5682 11.9303 21.62 11.8058C21.6718 11.6814 21.6984 11.5479 21.6984 11.4131C21.6984 11.2783 21.6718 11.1449 21.62 11.0204C21.5682 10.896 21.4923 10.783 21.3967 10.688V10.6497ZM11.9923 19.7474L9.65394 20.2649L10.2226 17.9458L16.7903 11.3077L18.592 13.1094L11.9923 19.7474ZM19.3139 12.3874L17.5123 10.5858L18.5281 9.58272L20.3426 11.3972L19.3139 12.3874Z" fill="#13274E"/>
</g>
<defs>
<clipPath id="clip0_6157_11585">
<rect width="23" height="23" fill="white"/>
</clipPath>
</defs>
</svg>
