<svg width="60" height="60" viewBox="0 0 60 60" fill="none" xmlns="http://www.w3.org/2000/svg">
<g filter="url(#filter0_f_7130_20192)">
<circle cx="30" cy="30" r="26" fill="#FFCACA" fill-opacity="0.26"/>
</g>
<rect x="15" y="14" width="30" height="31.3548" rx="15" fill="#FF6464"/>
<path d="M34.0166 22.3402C34.4428 21.772 35.228 21.6699 35.7705 22.1166C36.3154 22.5607 36.4103 23.3826 35.9843 23.9496L26.1953 37.014C25.9603 37.3288 25.6006 37.5133 25.2207 37.516H25.2119C24.8331 37.516 24.475 37.337 24.2363 37.0287L19.0254 30.264C18.5941 29.7036 18.678 28.8804 19.2168 28.4271C19.7543 27.9738 20.5396 28.0649 20.9746 28.6254L25.1982 34.1088L34.0166 22.3402ZM40.2666 22.3402C40.6927 21.772 41.4767 21.6701 42.0205 22.1166C42.5654 22.5607 42.6604 23.3826 42.2343 23.9496L32.4453 37.014C32.2103 37.3289 31.8507 37.5134 31.4707 37.516H31.4619C31.0832 37.516 30.726 37.3369 30.4873 37.0287L29.1123 35.2425L30.6933 33.1302L31.4482 34.1088L40.2666 22.3402ZM25.4668 28.4271C26.0055 27.9751 26.7921 28.0646 27.2246 28.6263L27.4755 28.9515L25.8916 31.0629L25.2763 30.265C24.844 29.7033 24.9282 28.8804 25.4668 28.4271Z" fill="#231F20"/>
<mask id="mask0_7130_20192" style="mask-type:luminance" maskUnits="userSpaceOnUse" x="18" y="21" width="25" height="17">
<path d="M34.0166 22.3402C34.4428 21.772 35.228 21.6699 35.7705 22.1166C36.3154 22.5607 36.4103 23.3826 35.9843 23.9496L26.1953 37.014C25.9603 37.3288 25.6006 37.5133 25.2207 37.516H25.2119C24.8331 37.516 24.475 37.337 24.2363 37.0287L19.0254 30.264C18.5941 29.7036 18.678 28.8804 19.2168 28.4271C19.7543 27.9738 20.5396 28.0649 20.9746 28.6254L25.1982 34.1088L34.0166 22.3402ZM40.2666 22.3402C40.6927 21.772 41.4767 21.6701 42.0205 22.1166C42.5654 22.5607 42.6604 23.3826 42.2343 23.9496L32.4453 37.014C32.2103 37.3289 31.8507 37.5134 31.4707 37.516H31.4619C31.0832 37.516 30.726 37.3369 30.4873 37.0287L29.1123 35.2425L30.6933 33.1302L31.4482 34.1088L40.2666 22.3402ZM25.4668 28.4271C26.0055 27.9751 26.7921 28.0646 27.2246 28.6263L27.4755 28.9515L25.8916 31.0629L25.2763 30.265C24.844 29.7033 24.9282 28.8804 25.4668 28.4271Z" fill="white"/>
</mask>
<g mask="url(#mask0_7130_20192)">
<rect x="15" y="14" width="30" height="31.3548" fill="white"/>
</g>
<defs>
<filter id="filter0_f_7130_20192" x="0" y="0" width="60" height="60" filterUnits="userSpaceOnUse" color-interpolation-filters="sRGB">
<feFlood flood-opacity="0" result="BackgroundImageFix"/>
<feBlend mode="normal" in="SourceGraphic" in2="BackgroundImageFix" result="shape"/>
<feGaussianBlur stdDeviation="2" result="effect1_foregroundBlur_7130_20192"/>
</filter>
</defs>
</svg>
